<svg width="367" height="367" viewBox="0 0 367 367" fill="none" xmlns="http://www.w3.org/2000/svg">
<path d="M343.032 216.455C346.203 220.303 347.742 225.239 347.322 230.207C346.902 235.175 344.556 239.782 340.785 243.044L287.608 287.234C267.637 303.986 242.125 312.668 216.08 311.576L138.935 307.831C130.293 307.396 121.63 307.898 113.096 309.329L80.8895 315.32H78.6426V220.2H80.1405L113.47 204.097C130.269 195.18 149.145 190.913 168.146 191.739L219.076 193.986H220.2C224.8 193.953 229.251 195.614 232.705 198.653C236.158 201.692 238.372 205.896 238.924 210.463C239.484 215.251 238.212 220.074 235.365 223.964C232.517 227.853 228.304 230.522 223.57 231.435L185.747 238.55C183.968 238.892 182.298 239.659 180.88 240.785C179.461 241.912 178.336 243.365 177.601 245.02C176.865 246.675 176.54 248.484 176.655 250.292C176.769 252.099 177.319 253.853 178.257 255.402L182.376 262.517C183.315 264.242 184.735 265.657 186.464 266.588C188.193 267.519 190.156 267.926 192.113 267.76L228.813 266.637C242.604 266.316 255.902 261.444 266.636 252.781L315.695 213.085C319.72 209.864 324.858 208.37 329.983 208.932C335.107 209.494 339.8 212.064 343.032 216.081V216.455Z" fill="#D9D9D9" stroke="#727271" stroke-width="6"/>
<path d="M332.547 67.7826V154.664C332.548 158.374 331.1 161.938 328.512 164.597C325.924 167.255 322.4 168.797 318.691 168.895H152.043C148.334 168.797 144.81 167.255 142.221 164.597C139.633 161.938 138.185 158.374 138.187 154.664V138.187H289.855C293.564 138.089 297.088 136.547 299.676 133.889C302.265 131.23 303.712 127.666 303.711 123.956V53.552H318.691C322.4 53.6496 325.924 55.1919 328.512 57.8502C331.1 60.5084 332.548 64.0724 332.547 67.7826Z" fill="#D9D9D9" stroke="#727271" stroke-width="6"/>
<path d="M303.712 53.552V123.956C303.713 127.666 302.265 131.23 299.677 133.889C297.089 136.547 293.565 138.089 289.856 138.187H123.208C119.499 138.089 115.975 136.547 113.386 133.889C110.798 131.23 109.35 127.666 109.352 123.956V37.0745C109.35 33.3643 110.798 29.8003 113.386 27.142C115.975 24.4838 119.499 22.9415 123.208 22.8439H289.856C293.565 22.9415 297.089 24.4838 299.677 27.142C302.265 29.8003 303.713 33.3643 303.712 37.0745V53.552Z" fill="#D9D9D9" stroke="#727271" stroke-width="6"/>
<path d="M78.643 315.32V329.177C78.643 333.149 77.0648 336.96 74.2556 339.769C71.4464 342.578 67.6363 344.156 63.6634 344.156H34.4532C30.4804 344.156 26.6703 342.578 23.8611 339.769C21.0518 336.96 19.4736 333.149 19.4736 329.177V219.826C19.4736 215.853 21.0518 212.043 23.8611 209.233C26.6703 206.424 30.4804 204.846 34.4532 204.846H63.6634C67.6363 204.846 71.4464 206.424 74.2556 209.233C77.0648 212.043 78.643 215.853 78.643 219.826V315.32Z" fill="#727271"/>
<path d="M274.501 99.2398C276.501 99.2398 278.456 99.8329 280.119 100.944C281.781 102.055 283.077 103.634 283.843 105.482C284.608 107.329 284.808 109.362 284.418 111.324C284.028 113.285 283.065 115.087 281.651 116.501C280.237 117.915 278.435 118.878 276.474 119.268C274.512 119.658 272.479 119.458 270.632 118.693C268.784 117.927 267.205 116.631 266.094 114.969C264.983 113.306 264.39 111.351 264.39 109.351C264.39 106.669 265.455 104.098 267.351 102.201C269.248 100.305 271.819 99.2398 274.501 99.2398ZM206.718 41.1939C214.479 41.2678 222.044 43.6367 228.461 48.0021C234.878 52.3674 239.86 58.5341 242.779 65.7254C245.697 72.9166 246.423 80.8108 244.864 88.4136C243.304 96.0163 239.53 102.988 234.016 108.449C228.502 113.911 221.496 117.619 213.878 119.106C206.261 120.594 198.374 119.793 191.211 116.806C184.048 113.82 177.929 108.78 173.624 102.322C169.32 95.8637 167.023 88.2764 167.022 80.5153C167.022 75.3199 168.052 70.176 170.051 65.3807C172.051 60.5854 174.98 56.2339 178.672 52.5777C182.363 48.9214 186.742 46.0328 191.556 44.0789C196.37 42.125 201.523 41.1444 206.718 41.1939Z" fill="#FF9900"/>
<path d="M138.561 61.4163C144.146 61.4163 148.673 56.8893 148.673 51.3051C148.673 45.7208 144.146 41.1938 138.561 41.1938C132.977 41.1938 128.45 45.7208 128.45 51.3051C128.45 56.8893 132.977 61.4163 138.561 61.4163Z" fill="#FF9900"/>
</svg>
