<svg width="512" height="512" viewBox="0 0 512 512" fill="none" xmlns="http://www.w3.org/2000/svg">
<path d="M246.557 303.87L63.1827 487.244C60.419 490.008 56.6706 491.56 52.7622 491.56C48.8538 491.56 45.1054 490.008 42.3417 487.244L24.7557 469.658C21.992 466.894 20.4395 463.146 20.4395 459.237C20.4395 455.329 21.992 451.581 24.7557 448.817L208.13 265.443C206.874 266.694 205.877 268.18 205.197 269.816C204.517 271.453 204.166 273.208 204.166 274.98C204.165 276.752 204.514 278.507 205.192 280.145C205.871 281.782 206.866 283.269 208.121 284.521L227.479 303.879C228.732 305.131 230.22 306.124 231.857 306.801C233.494 307.478 235.248 307.827 237.02 307.826C238.791 307.825 240.545 307.475 242.182 306.796C243.818 306.118 245.305 305.123 246.557 303.87ZM451.791 60.209C427.056 35.4717 393.727 21.2356 358.753 20.4683C323.78 19.7009 289.859 32.4615 264.063 56.0901C238.266 79.7187 222.585 112.392 220.287 147.299C217.99 182.205 229.253 216.652 251.73 243.458C254.258 246.474 256.936 249.399 259.766 252.234C262.595 255.069 265.52 257.747 268.542 260.27C295.348 282.747 329.794 294.01 364.701 291.713C399.608 289.415 432.281 273.733 455.91 247.937C479.538 222.141 492.299 188.22 491.531 153.246C490.764 118.272 476.528 84.9441 451.791 60.209ZM355.78 268.337C333.605 268.336 311.929 261.76 293.492 249.44C275.054 237.12 260.685 219.61 252.199 199.123C243.714 178.636 241.494 156.094 245.82 134.345C250.147 112.597 260.825 92.6198 276.505 76.9402C292.185 61.2607 312.162 50.5829 333.911 46.2571C355.659 41.9312 378.202 44.1517 398.689 52.6377C419.175 61.1236 436.685 75.4939 449.005 93.9314C461.324 112.369 467.9 134.045 467.9 156.22C467.9 170.944 465 185.523 459.365 199.126C453.731 212.729 445.472 225.089 435.061 235.5C424.649 245.911 412.289 254.17 398.686 259.804C385.083 265.438 370.503 268.338 355.78 268.337Z" fill="#B0B0B0"/>
<path d="M456.159 55.841C400.88 0.559998 310.93 0.559998 255.649 55.841C231.25 80.239 216.586 112.697 214.404 147.133C212.223 181.569 222.675 215.618 243.8 242.9L228.264 258.437C224.525 256.047 220.083 255.006 215.672 255.486C211.261 255.966 207.146 257.939 204.009 261.077L20.6391 444.449C16.756 448.341 14.5752 453.614 14.5752 459.112C14.5752 464.609 16.756 469.882 20.6391 473.774L38.2251 491.36C42.1166 495.244 47.39 497.425 52.8881 497.425C58.3861 497.425 63.6595 495.244 67.5511 491.36L250.915 308L250.925 307.99C254.067 304.855 256.042 300.74 256.523 296.328C257.003 291.916 255.96 287.472 253.566 283.735L269.1 268.2C293.917 287.47 324.452 297.914 355.872 297.879C357.816 297.879 359.765 297.839 361.718 297.76C397.289 296.343 431.016 281.556 456.159 256.354C511.44 201.07 511.44 111.122 456.159 55.841ZM237.083 266.59L251.575 252.1C252.908 253.55 254.266 254.968 255.649 256.353C257.032 257.738 258.449 259.096 259.902 260.426L245.41 274.917L237.083 266.59ZM223.083 269.561L242.44 288.917C243.137 289.611 243.689 290.436 244.066 291.344C244.443 292.252 244.638 293.226 244.638 294.21C244.638 295.193 244.443 296.167 244.066 297.075C243.689 297.983 243.137 298.808 242.44 299.502C241.035 300.905 239.131 301.694 237.146 301.696C235.16 301.698 233.255 300.912 231.848 299.511L212.49 280.153C211.107 278.744 210.336 276.846 210.345 274.871C210.355 272.897 211.143 271.006 212.539 269.61C213.935 268.214 215.826 267.426 217.801 267.416C219.775 267.407 221.674 268.178 223.083 269.561ZM59.0661 482.876C57.4261 484.512 55.2044 485.43 52.8881 485.43C50.5717 485.43 48.35 484.512 46.7101 482.876L29.1251 465.29C27.4887 463.65 26.5698 461.428 26.5698 459.112C26.5698 456.796 27.4887 454.574 29.1251 452.934L199.76 282.3C200.742 284.672 202.183 286.826 204 288.639L223.362 308C225.178 309.818 227.338 311.257 229.715 312.232L59.0661 482.876ZM447.675 247.866C424.641 270.659 393.953 284.069 361.579 285.489C329.205 286.908 297.461 276.235 272.521 255.545C269.621 253.112 266.797 250.528 264.135 247.866C261.473 245.204 258.89 242.382 256.449 239.466C213.565 188.448 216.941 111.515 264.134 64.321C288.49 40.0636 321.475 26.4597 355.85 26.4945C390.225 26.5293 423.182 40.2001 447.488 64.5068C471.795 88.8134 485.466 121.77 485.501 156.145C485.536 190.52 471.932 223.505 447.675 247.861V247.866Z" fill="#727271"/>
<path d="M355.905 37.978C332.544 37.978 309.707 44.9055 290.283 57.8844C270.858 70.8633 255.719 89.3107 246.779 110.894C237.839 132.477 235.5 156.226 240.058 179.139C244.615 202.051 255.865 223.098 272.384 239.617C288.903 256.136 309.95 267.385 332.862 271.943C355.775 276.5 379.524 274.161 401.107 265.221C422.69 256.28 441.138 241.141 454.116 221.717C467.095 202.292 474.022 179.455 474.022 156.094C473.987 124.778 461.531 94.7554 439.388 72.6119C417.244 50.4685 387.221 38.013 355.905 37.978ZM355.905 262.211C334.917 262.211 314.401 255.987 296.95 244.327C279.499 232.667 265.898 216.094 257.866 196.703C249.834 177.313 247.733 155.976 251.827 135.392C255.922 114.807 266.028 95.8987 280.869 81.058C295.71 66.2173 314.618 56.1106 335.203 52.016C355.787 47.9215 377.124 50.023 396.514 58.0547C415.905 66.0864 432.478 79.6877 444.138 97.1386C455.798 114.589 462.022 135.106 462.022 156.094C461.99 184.228 450.8 211.201 430.906 231.095C411.012 250.989 384.039 262.179 355.905 262.211Z" fill="#727271"/>
<path d="M332.645 141.11C338.432 141.11 344.089 139.394 348.901 136.179C353.713 132.963 357.464 128.393 359.678 123.047C361.893 117.7 362.472 111.817 361.343 106.14C360.214 100.464 357.428 95.2506 353.335 91.1584C349.243 87.0661 344.029 84.2793 338.353 83.1503C332.677 82.0212 326.794 82.6007 321.447 84.8154C316.1 87.0301 311.53 90.7805 308.315 95.5925C305.1 100.404 303.384 106.062 303.384 111.849C303.392 119.607 306.478 127.044 311.964 132.53C317.449 138.016 324.887 141.101 332.645 141.11ZM332.645 94.588C336.059 94.588 339.396 95.6004 342.234 97.497C345.073 99.3937 347.285 102.089 348.592 105.244C349.898 108.398 350.24 111.868 349.574 115.216C348.908 118.565 347.264 121.64 344.85 124.054C342.436 126.468 339.36 128.112 336.012 128.778C332.664 129.444 329.193 129.103 326.039 127.796C322.885 126.49 320.189 124.277 318.293 121.439C316.396 118.6 315.384 115.263 315.384 111.849C315.389 107.273 317.209 102.885 320.445 99.6495C323.681 96.4136 328.068 94.5933 332.645 94.588ZM380.5 171.079C374.712 171.079 369.055 172.795 364.243 176.01C359.431 179.226 355.681 183.796 353.466 189.143C351.251 194.489 350.672 200.373 351.801 206.049C352.93 211.725 355.717 216.939 359.809 221.031C363.902 225.123 369.116 227.91 374.792 229.039C380.468 230.168 386.351 229.588 391.698 227.373C397.045 225.159 401.615 221.408 404.83 216.596C408.045 211.784 409.761 206.126 409.761 200.339C409.752 192.581 406.666 185.144 401.181 179.658C395.695 174.173 388.257 171.087 380.5 171.079ZM380.5 217.6C377.086 217.6 373.749 216.588 370.91 214.691C368.071 212.794 365.859 210.099 364.553 206.945C363.246 203.79 362.904 200.32 363.57 196.972C364.236 193.623 365.88 190.548 368.294 188.134C370.708 185.72 373.784 184.076 377.132 183.41C380.481 182.744 383.951 183.086 387.105 184.392C390.259 185.698 392.955 187.911 394.852 190.749C396.748 193.588 397.761 196.925 397.761 200.339C397.756 204.915 395.935 209.303 392.7 212.539C389.464 215.775 385.076 217.595 380.5 217.6ZM405.767 98.415L297.561 206.62C296.991 207.174 296.537 207.836 296.226 208.567C295.914 209.299 295.751 210.084 295.745 210.879C295.74 211.674 295.892 212.462 296.194 213.197C296.496 213.932 296.94 214.6 297.502 215.162C298.064 215.725 298.732 216.169 299.467 216.471C300.203 216.773 300.991 216.925 301.785 216.92C302.58 216.915 303.366 216.751 304.097 216.44C304.828 216.128 305.49 215.675 306.045 215.105L414.251 106.9C414.82 106.346 415.274 105.684 415.586 104.953C415.897 104.222 416.061 103.436 416.066 102.641C416.072 101.846 415.919 101.058 415.617 100.323C415.316 99.5877 414.871 98.9196 414.309 98.3576C413.747 97.7955 413.079 97.3508 412.344 97.049C411.609 96.7473 410.821 96.5947 410.026 96.6001C409.231 96.6054 408.445 96.7686 407.714 97.0802C406.983 97.3918 406.321 97.8455 405.767 98.415Z" fill="#FF9900"/>
</svg>
