<svg width="253" height="253" viewBox="0 0 253 253" fill="none" xmlns="http://www.w3.org/2000/svg">
<path d="M126.5 33.8959C154.356 33.8959 176.938 56.4775 176.938 84.3334C176.938 112.189 154.356 134.771 126.5 134.771C98.6441 134.771 76.0625 112.189 76.0625 84.3334C76.0625 56.4775 98.6441 33.8959 126.5 33.8959Z" stroke="#FFB250" stroke-width="6"/>
<path d="M73.7917 200.292H179.208C185.03 200.292 189.75 195.572 189.75 189.75V126.5C189.75 120.678 185.03 115.958 179.208 115.958L73.7917 115.958C67.9697 115.958 63.25 120.678 63.25 126.5L63.25 189.75C63.25 195.572 67.9697 200.292 73.7917 200.292Z" fill="#D9D9D9"/>
<path d="M196.919 211.888C176.777 228.474 151.423 237.412 125.332 237.124C99.2414 236.835 74.0912 227.339 54.321 210.311C34.5507 193.283 21.4314 169.819 17.2789 144.059C13.1263 118.299 18.2075 91.9003 31.6254 69.5223V79.0625C31.6254 80.4604 32.1807 81.8011 33.1692 82.7896C34.1576 83.778 35.4983 84.3334 36.8962 84.3334C38.2941 84.3334 39.6348 83.778 40.6233 82.7896C41.6117 81.8011 42.1671 80.4604 42.1671 79.0625V57.9792C42.1671 56.5813 41.6117 55.2406 40.6233 54.2522C39.6348 53.2637 38.2941 52.7084 36.8962 52.7084H15.8129C14.415 52.7084 13.0743 53.2637 12.0858 54.2522C11.0974 55.2406 10.542 56.5813 10.542 57.9792C10.542 59.3771 11.0974 60.7178 12.0858 61.7062C13.0743 62.6947 14.415 63.25 15.8129 63.25H23.0866C-25.9848 143.156 31.6254 247.729 126.5 247.729C154.657 247.704 181.931 237.905 203.665 220.005C204.742 219.11 205.419 217.824 205.547 216.431C205.676 215.037 205.245 213.649 204.351 212.573C203.456 211.496 202.17 210.819 200.777 210.691C199.383 210.562 197.995 210.993 196.919 211.888ZM237.188 189.75H229.914C278.986 109.844 221.375 5.27087 126.5 5.27087C98.3439 5.29564 71.0694 15.0951 49.3354 32.9955C48.8024 33.4384 48.3619 33.9821 48.039 34.5953C47.7161 35.2085 47.5172 35.8794 47.4536 36.5695C47.39 37.2596 47.4629 37.9555 47.6682 38.6174C47.8735 39.2793 48.2072 39.8944 48.6502 40.4273C49.0932 40.9603 49.6368 41.4008 50.25 41.7237C50.8633 42.0466 51.5341 42.2455 52.2242 42.3091C52.9143 42.3728 53.6102 42.2998 54.2721 42.0945C54.9341 41.8892 55.5491 41.5555 56.0821 41.1125C76.2239 24.5258 101.578 15.5879 127.669 15.8763C153.759 16.1647 178.91 25.6609 198.68 42.6888C218.45 59.7167 231.569 83.1815 235.722 108.941C239.874 134.701 234.793 161.1 221.375 183.478V173.938C221.375 172.54 220.82 171.199 219.832 170.21C218.843 169.222 217.502 168.667 216.105 168.667C214.707 168.667 213.366 169.222 212.378 170.21C211.389 171.199 210.834 172.54 210.834 173.938V195.021C210.834 196.419 211.389 197.759 212.378 198.748C213.366 199.736 214.707 200.292 216.105 200.292H237.188C238.586 200.292 239.926 199.736 240.915 198.748C241.903 197.759 242.459 196.419 242.459 195.021C242.459 193.623 241.903 192.282 240.915 191.294C239.926 190.305 238.586 189.75 237.188 189.75Z" fill="#727271"/>
<path d="M158.125 145.312H181.479V170.938H158.125C154.727 170.937 151.468 169.587 149.065 167.185C146.663 164.782 145.313 161.523 145.312 158.125L145.316 157.807C145.398 154.524 146.738 151.393 149.065 149.065C151.393 146.738 154.524 145.398 157.807 145.316L158.125 145.312Z" fill="white" stroke="#FFB250" stroke-width="6"/>
<path d="M158.125 163.396C161.036 163.396 163.396 161.036 163.396 158.125C163.396 155.214 161.036 152.854 158.125 152.854C155.214 152.854 152.854 155.214 152.854 158.125C152.854 161.036 155.214 163.396 158.125 163.396Z" fill="#FF9900"/>
<path fill-rule="evenodd" clip-rule="evenodd" d="M129.792 59.1667C129.792 57.3487 128.318 55.875 126.5 55.875C124.682 55.875 123.209 57.3487 123.209 59.1667V62.4583C115.937 62.4583 110.042 68.3532 110.042 75.625C110.042 82.8968 115.937 88.7917 123.209 88.7917V101.958C120.347 101.958 117.904 100.131 116.999 97.5697C116.393 95.8557 114.513 94.9573 112.799 95.5631C111.085 96.169 110.186 98.0496 110.792 99.7636C112.598 104.873 117.471 108.542 123.209 108.542V111.833C123.209 113.651 124.682 115.125 126.5 115.125C128.318 115.125 129.792 113.651 129.792 111.833V108.542C137.064 108.542 142.959 102.647 142.959 95.375C142.959 88.1032 137.064 82.2083 129.792 82.2083V69.0417C132.653 69.0417 135.096 70.8689 136.002 73.4303C136.607 75.1443 138.488 76.0427 140.202 75.4369C141.916 74.8311 142.814 72.9504 142.209 71.2364C140.403 66.1269 135.53 62.4583 129.792 62.4583V59.1667ZM123.209 69.0417C119.573 69.0417 116.625 71.9892 116.625 75.625C116.625 79.2608 119.573 82.2083 123.209 82.2083V69.0417ZM129.792 88.7917V101.958C133.428 101.958 136.375 99.0108 136.375 95.375C136.375 91.7392 133.428 88.7917 129.792 88.7917Z" fill="#FF9900"/>
<path d="M179.209 205.563H73.792C69.5983 205.563 65.5763 203.897 62.6109 200.931C59.6454 197.966 57.9795 193.944 57.9795 189.75V126.5C57.9795 122.306 59.6454 118.284 62.6109 115.319C65.5763 112.353 69.5983 110.688 73.792 110.688H179.209C183.402 110.688 187.424 112.353 190.39 115.319C193.355 118.284 195.021 122.306 195.021 126.5V189.75C195.021 193.944 193.355 197.966 190.39 200.931C187.424 203.897 183.402 205.563 179.209 205.563ZM73.792 121.229C72.3941 121.229 71.0534 121.784 70.065 122.773C69.0765 123.761 68.5212 125.102 68.5212 126.5V189.75C68.5212 191.148 69.0765 192.489 70.065 193.477C71.0534 194.466 72.3941 195.021 73.792 195.021H179.209C180.607 195.021 181.947 194.466 182.936 193.477C183.924 192.489 184.479 191.148 184.479 189.75V126.5C184.479 125.102 183.924 123.761 182.936 122.773C181.947 121.784 180.607 121.229 179.209 121.229H73.792Z" fill="#B0B0B0"/>
</svg>
