<svg width="61" height="43" viewBox="0 0 61 43" fill="none" xmlns="http://www.w3.org/2000/svg">
<path d="M27.6793 18.9819L20.477 11.9628C19.9159 11.416 19.0182 11.416 18.4571 11.9628L12.2648 17.9976C11.7037 18.5444 11.7037 19.4193 12.2648 19.9661L19.4671 26.9852L11.2548 34.9886L3.6649 27.5917C-1.22163 22.8294 -1.22163 15.1144 3.6649 10.3522L10.6223 3.57168C15.5089 -1.19056 23.4252 -1.19056 28.3118 3.57168L35.9017 10.9686L27.6895 18.9719L27.6793 18.9819Z" fill="#4B55FD"/>
<path d="M35.8917 10.9784L44.1142 18.9818L35.8917 26.9851L27.6795 18.9818L19.4673 26.9851L35.8917 43.0018L60.5386 18.9818L44.1142 2.97506L35.8917 10.9784Z" fill="#4B55FD"/>
</svg>
