<svg width="154" height="43" viewBox="0 0 154 43" fill="none" xmlns="http://www.w3.org/2000/svg">
<path d="M26.0721 11.281L32.045 17.0948L26.0721 22.9085L20.1066 17.0948L14.1411 22.9085L26.0721 34.5433L43.9759 17.0948L32.045 5.46725L26.0721 11.281Z" fill="#4B55FD"/>
<path d="M20.1066 17.0948L14.8748 11.9961C14.4672 11.5988 13.8151 11.5988 13.4075 11.9961L8.90932 16.3798C8.50174 16.7771 8.50174 17.4126 8.90932 17.8098L14.1412 22.9086L8.17568 28.7223L2.66224 23.3491C-0.887412 19.8898 -0.887412 14.2854 2.66224 10.8261L7.71622 5.90065C11.2659 2.44128 17.0165 2.44128 20.5661 5.90065L26.0795 11.2739L20.1141 17.0876L20.1066 17.0948Z" fill="#4B55FD"/>
<path d="M55.7969 0H64.1337V17.9757L72.0037 9.70644H81.7338L72.4187 18.8857L82.8231 34.1892H73.0412L66.6755 24.1939L64.1411 26.6783V34.182H55.8043V0H55.7969Z" fill="#4B55FD"/>
<path d="M84.7852 0H93.2258V6.31208H84.7852V0ZM84.7852 9.70644H93.2258V34.1892H84.7852V9.70644Z" fill="#4B55FD"/>
<path d="M96.6438 34.7594H104.825C105.292 36.0522 106.685 37.1499 109.486 37.1499C113.058 37.1499 114.562 35.4311 114.562 32.4628V30.0218H114.355C112.799 31.6467 110.783 32.8456 107.574 32.8456C101.624 32.8456 96.0806 28.7362 96.0806 21.2253C96.0806 13.7144 100.638 8.98392 107.211 8.98392C110.731 8.98392 113.11 10.2767 114.666 12.3277H114.77V9.6989H122.847V31.7912C122.847 35.4744 121.447 38.1538 119.327 39.9232C117.001 41.837 113.532 42.6459 109.597 42.6459C102.298 42.6459 97.4812 39.8726 96.6586 34.7594H96.6438ZM114.918 20.9436C114.918 17.6432 113.058 14.8699 109.538 14.8699C106.381 14.8699 104.306 17.2604 104.306 20.987C104.306 24.7135 106.374 27.0607 109.538 27.0607C113.214 27.0607 114.918 24.3813 114.918 20.9436Z" fill="#4B55FD"/>
<path d="M125.685 21.9983C125.685 14.6318 131.376 9.0419 139.868 9.0419C148.361 9.0419 154 14.639 154 21.9983C154 29.3575 148.413 34.9546 139.868 34.9546C131.324 34.9546 125.685 29.3575 125.685 21.9983ZM145.456 21.9983C145.456 17.5495 143.492 14.5379 139.816 14.5379C136.141 14.5379 134.229 17.5495 134.229 21.9983C134.229 26.4471 136.141 29.4081 139.816 29.4081C143.492 29.4081 145.456 26.4471 145.456 21.9983Z" fill="#4B55FD"/>
</svg>
