<svg width="133" height="73" viewBox="0 0 133 73" fill="none" xmlns="http://www.w3.org/2000/svg">
<path d="M66.3001 72.1C87.3001 54.1 116.8 36.6 133 30.3C130.5 28.7 126.6 26.4 122.2 23.9C101.3 30.8 76.9001 46.1 55.1001 63.4C58.8001 66.2 62.7001 69.1 66.3001 72.1Z" fill="#E31837"/>
<path d="M56.6999 23.2C53.5999 21.7 50.1999 20.3 47.5999 19.1C39.6999 23 29.3999 28.9 16.3999 38.2C19.1999 39.7 22.1999 41.5 25.3999 43.3C35.3999 35.9 45.4999 28.9 56.6999 23.2Z" fill="#012169"/>
<path d="M75.4 14.6C71.6 12.5 58.3999 7.6 49.2999 5.5C46.5999 6.5 42.8 8 40.2 9.1C43.5 10 55.7999 13.3 66.2999 18.6C68.9999 17.3 72.8 15.7 75.4 14.6Z" fill="#E31837"/>
<path d="M30.7 13.3C19 18.7 6.7 26.1 0 30.4C2.4 31.5 4.79998 32.4 8.09998 34C22.9 24 34.5 17.9 39.1 15.9C35.8 14.7 32.7 13.9 30.7 13.3Z" fill="#012169"/>
<path d="M84.1999 11.5C86.8999 10.6 89.9999 9.8 92.6999 9C84.8999 5.7 75.0999 2.2 66.2999 0C64.8999 0.4 60.6999 1.5 57.7999 2.4C60.7999 3.3 70.6999 5.6 84.1999 11.5ZM34.8999 49.1C38.0999 51 41.4999 53.6 44.7999 55.8C66.6999 38.8 88.2999 25.7 112 18.3C108.7 16.6 105.8 15.1 102.1 13.3C87.8999 16.9 63.5999 26.6 34.8999 49.1Z" fill="#E31837"/>
</svg>
