<svg width="88" height="88" viewBox="0 0 88 88" fill="none" xmlns="http://www.w3.org/2000/svg">
<path d="M0 0H87.2959V87.2959H0V0Z" fill="#009DDB"/>
<path d="M75.8965 39.5095C75.8965 38.2602 75.1156 37.3232 74.491 36.3862C73.8663 35.7615 73.3978 35.1369 73.3978 34.3561C73.3978 33.4191 74.0225 32.7944 74.8033 32.7944C75.2718 32.7944 75.5841 32.9506 75.8965 33.1068C76.2088 33.2629 76.6773 33.4191 76.9896 33.4191C77.6143 33.4191 78.0828 32.7944 78.0828 32.3259C78.0828 31.7013 77.4581 31.0766 76.3649 31.0766C73.8663 31.0766 71.68 33.8876 71.68 36.0739C71.68 37.3232 72.4608 38.2602 73.0855 39.041C73.554 39.6657 74.0225 40.2903 74.0225 40.915C74.0225 41.852 73.0855 42.4766 72.3047 42.4766C71.3677 42.4766 70.8992 42.0081 70.2745 41.5396C69.9622 41.2273 69.6499 40.915 69.3376 40.915C68.8691 40.915 68.7129 41.852 68.7129 42.3205C68.7129 42.9451 69.806 43.8821 71.2115 43.8821C73.3978 43.5698 75.8965 41.6958 75.8965 39.5095Z" fill="white"/>
<path d="M22.6444 24.2053C22.4882 24.2053 22.4882 24.2053 22.6444 24.2053L22.4882 24.83V24.9861H23.2691C23.8937 25.1423 24.0499 25.1423 24.0499 25.4546C24.0499 25.9231 23.4252 27.4848 22.6444 29.6711L22.0197 31.7012C21.3951 33.419 20.4581 35.9176 19.6773 37.9478C18.7403 40.4464 17.9595 42.4765 17.9595 42.7889C17.9595 43.1012 18.1156 43.2574 18.8965 43.2574C19.6773 43.2574 19.9896 43.1012 20.1458 42.7889C21.5513 38.2601 25.2992 33.1067 27.1732 33.1067C27.7978 33.1067 27.954 33.2628 27.954 33.8875C27.954 34.8245 27.1732 36.6985 26.2362 38.5724C25.4554 40.1341 24.8307 41.6957 24.8307 42.4765C24.8307 43.1012 25.143 43.4135 25.7677 43.4135C27.6417 43.4135 29.2033 41.6957 30.2965 40.2902L30.4526 40.1341L29.9841 39.6656H29.828C29.2033 40.2902 28.1102 41.3834 27.7978 41.3834H27.6417V41.0711C27.6417 40.9149 27.7978 40.4464 28.1102 39.8217C28.891 38.1039 30.1403 35.1368 30.1403 33.419C30.1403 32.0135 29.5156 31.2327 28.2663 31.2327C25.9239 31.2327 24.0499 33.8875 23.1129 35.293C22.9567 35.6053 22.6444 35.9176 22.6444 35.9176C22.6444 35.9176 22.8006 35.6053 22.9567 34.9806C23.2691 34.356 23.5814 33.419 24.0499 32.1697C25.7677 27.4848 26.5485 25.1423 26.5485 24.83C26.5485 24.5176 26.2362 24.5176 26.08 24.5176H22.6444V24.2053Z" fill="white"/>
<path d="M17.3346 40.759C17.4907 40.6029 17.4907 40.6029 17.3346 40.759C17.3346 40.6029 16.8661 40.2905 16.8661 40.2905C16.0853 40.9152 14.6798 42.1645 13.4305 42.1645C12.962 42.1645 12.4935 42.0083 12.1812 41.696C11.7127 41.3837 11.5565 40.759 11.5565 39.9782C11.4003 38.1042 13.1181 35.1371 14.6798 33.4193C15.6168 32.4823 16.3976 32.0138 16.8661 32.0138C17.4907 32.0138 17.9592 32.4823 18.4277 32.9508C18.7401 33.4193 19.0524 33.7316 19.5209 33.7316C19.677 33.7316 19.9894 33.5755 19.9894 33.4193C20.1455 33.2631 20.3017 32.9508 20.3017 32.7946C20.3017 32.0138 19.5209 30.9207 17.8031 30.7645C15.9291 30.7645 13.4305 31.8576 11.5565 33.7316C9.83868 35.4494 8.9017 37.6357 9.05786 39.6659C9.05786 41.3837 9.99485 43.2576 12.4935 43.2576C14.9921 43.57 17.0222 41.3837 17.3346 40.759Z" fill="white"/>
<path d="M48.8791 36.3865C48.8791 36.5426 48.723 36.6988 48.723 36.6988V36.5426C48.723 36.3865 48.8791 35.918 49.0353 35.2933C49.3476 34.044 49.6599 32.4823 49.6599 32.0139C49.6599 31.3892 49.3476 31.0769 48.723 31.0769C47.4736 31.0769 45.4435 33.2632 44.8188 34.3563L45.1312 34.8248L45.2873 34.6686L45.4435 34.5125C45.912 33.8878 46.849 32.7947 47.3175 32.7947C47.6298 32.7947 47.786 33.107 47.786 33.5755C47.786 34.6686 46.5367 38.1043 45.7558 40.4467C45.2873 41.696 44.975 42.633 44.975 42.7892C44.975 43.1015 45.1312 43.1015 45.2873 43.1015H46.3805C46.5367 43.1015 46.6928 42.9454 46.849 42.633C46.849 42.633 47.3175 41.3837 47.6298 40.7591C49.8161 36.3865 50.9093 34.2002 51.8462 33.2632C52.4709 32.6385 52.9394 32.4823 53.2517 32.4823C53.564 32.4823 53.5641 32.6385 53.7202 32.7947C53.8764 32.9508 54.0325 33.2632 54.3449 33.2632C54.501 33.2632 54.8134 33.2632 54.9695 33.107C55.2819 32.7947 55.438 32.4823 55.438 32.0139C55.438 31.233 54.8134 30.9207 54.3449 30.9207C52.1586 31.0769 50.7531 32.4823 48.8791 36.3865Z" fill="white"/>
<path d="M42.165 30.7646C42.0088 30.7646 41.8527 30.9208 41.8527 31.0769C41.6965 31.2331 41.6965 31.3893 41.3842 31.3893C41.228 31.3893 41.0718 31.3893 40.7595 31.2331C40.4472 31.2331 40.1349 31.0769 39.6664 31.0769C34.2006 31.0769 31.3896 38.4167 31.3896 40.9153C31.3896 42.6331 32.3266 43.4139 33.2636 43.4139C34.3568 43.4139 35.9184 43.1016 37.9486 39.9783L38.417 39.1975V39.3536L38.2609 39.666C37.9486 40.1345 37.4801 41.2276 37.4801 42.1646C37.4801 42.6331 37.6362 42.9454 37.7924 43.1016C37.9486 43.2578 38.2609 43.4139 38.5732 43.4139C40.4472 43.4139 42.0088 40.9153 42.6335 39.9783L42.165 39.5098H42.0088L41.5403 39.9783C40.9157 40.603 40.291 41.5399 39.8225 41.5399H39.6664V41.2276C39.6664 40.603 40.9157 37.6358 41.6965 35.2934C42.3212 33.5756 42.9458 32.0139 42.9458 31.7016C42.9458 31.7016 42.9458 31.3893 42.7896 31.3893L42.0088 30.9208C42.3212 30.7646 42.165 30.7646 42.165 30.7646ZM33.5759 40.4468C33.5759 36.855 36.3869 32.0139 39.1979 32.0139C40.1349 32.0139 40.6033 32.4824 40.6033 33.4194C40.6033 34.8249 36.8554 41.5399 34.3568 41.5399C33.8883 41.6961 33.5759 41.5399 33.5759 40.4468Z" fill="white"/>
<path d="M59.6548 40.1345C59.6548 42.1646 60.9041 43.5701 62.7781 43.5701C64.9644 43.5701 67.3068 41.3838 67.9315 40.7591V40.603L67.6192 40.1345H67.463L67.1507 40.2906C66.3699 40.9153 65.1205 41.8523 64.0274 41.8523C62.7781 41.8523 61.9973 41.0715 61.9973 39.8221C61.9973 38.2605 62.7781 37.1673 63.2466 36.2304V36.0742H64.4959C66.526 36.0742 70.274 35.1372 70.274 32.7947C70.274 31.8578 69.337 30.7646 67.7753 30.7646C64.652 31.0769 59.6548 35.7619 59.6548 40.1345ZM67.6192 31.8578C68.2438 31.8578 68.7123 32.3262 68.7123 32.9509C68.7123 34.5125 66.9945 35.2934 64.0274 35.2934C64.4959 34.2002 66.2137 31.8578 67.6192 31.8578Z" fill="white"/>
<path d="M58.7182 40.291C58.7182 40.1348 58.2497 39.6663 58.2497 39.6663L58.0935 39.8225C57.0004 40.9156 56.5319 41.6964 55.9072 41.6964H55.7511C55.7511 41.6964 55.5949 41.5403 55.5949 41.3841C55.5949 40.7595 56.6881 37.6362 58.8744 32.0143L60.436 27.954C61.2168 25.9238 61.6853 24.8307 61.6853 24.6745V24.5184C61.6853 24.3622 61.5292 24.3622 61.2168 24.3622H57.625C57.625 24.3622 57.4689 24.3622 57.4689 24.5184V25.2992H58.2497C58.7182 25.4553 59.0305 25.6115 59.0305 25.9238C59.0305 26.3923 56.6881 32.1704 56.6881 32.1704C55.4387 35.2937 53.2524 40.7595 53.2524 42.0088C53.2524 42.6334 53.4086 43.1019 53.5648 43.2581C53.8771 43.5704 54.1894 43.7266 54.6579 43.7266C56.0634 43.7266 57.625 41.8526 58.562 40.6033L58.7182 40.291Z" fill="white"/>
<path d="M9.21459 51.2215C9.21459 52.9393 10.6201 53.8763 11.8694 54.5009L12.494 54.8132C13.7434 55.4379 14.368 56.2187 14.368 57.1557C14.368 58.2489 13.5872 59.1859 12.494 59.1859C10.7762 59.1859 9.83924 57.468 9.37075 56.3749L8.74609 56.5311C8.90226 57.6242 9.21459 58.8735 9.21459 59.342H9.52692L10.3077 59.6543C10.7762 59.8105 11.4009 59.9667 12.0255 59.9667C14.368 59.9667 16.0858 58.5612 16.0858 56.3749C16.0858 54.3448 14.5242 53.4078 13.431 52.9393L12.9625 52.7831C11.5571 52.0023 10.9324 51.3776 10.9324 50.4406C10.9324 49.5037 11.5571 48.5667 12.6502 48.5667C14.0557 48.5667 14.6803 49.6598 14.9927 50.753L15.6173 50.5968C15.4612 49.6598 15.305 48.879 15.305 48.2543L14.8365 48.0982L14.5242 47.942C14.0557 47.7859 13.431 47.6297 12.9625 47.6297C10.7762 47.7858 9.21459 49.1913 9.21459 51.2215Z" fill="white"/>
<path d="M17.4912 54.0324C17.4912 56.9995 19.5213 59.8105 24.0501 59.8105C25.1433 59.8105 26.7049 59.4982 27.3296 59.342C27.6419 58.5612 28.1104 57.1557 28.2666 56.3749L27.6419 56.2187C26.7049 58.0927 25.9241 59.0297 23.894 59.0297C21.3953 59.0297 19.6775 56.8434 19.6775 53.5639C19.6775 51.2214 20.7707 48.5667 23.894 48.5667C25.7679 48.5667 26.7049 49.3475 27.1734 51.2214H27.7981L27.6419 50.4406L27.3296 48.4105H27.0172C26.3926 48.2543 25.4556 48.0982 24.2063 48.0982C20.3022 47.7858 17.4912 50.2845 17.4912 54.0324Z" fill="white"/>
<path d="M41.3832 48.0986H36.3859V48.7232C37.6353 48.8794 37.7914 48.8794 37.7914 50.9095V53.252H32.4818V50.9095C32.4818 49.0356 32.638 48.8794 33.8873 48.7232V48.0986H28.7339V48.7232C30.2955 48.8794 30.2955 49.0356 30.2955 50.9095V57.1561C30.2955 59.0301 30.1394 59.1862 28.7339 59.3424V59.9671H33.8873V59.3424C32.638 59.1862 32.3257 59.1862 32.3257 57.1561V54.189H37.6353V57.1561C37.6353 59.0301 37.4791 59.1862 36.0736 59.3424V59.9671H41.227V59.3424C39.8216 59.1862 39.6654 59.1862 39.6654 57.1561V50.9095C39.6654 49.0356 39.8216 48.8794 41.227 48.7232L41.3832 48.0986Z" fill="white"/>
<path d="M59.0303 48.0985H54.97V48.7232H55.5947C55.907 48.7232 56.0632 48.8793 56.2193 48.8793C56.2193 49.0355 56.3755 49.0355 56.3755 49.1917C56.3755 49.3478 56.3755 49.6602 56.2193 49.9725C56.2193 50.1286 55.2824 54.0328 54.5015 56.5314C54.3454 56.2191 51.3783 48.2547 51.3783 48.2547H50.5974C50.5974 48.2547 47.9426 56.5314 47.9426 56.6876C47.7865 56.3752 45.9125 49.8163 45.9125 49.8163C45.9125 49.504 45.7563 49.3478 45.7563 49.1917V48.8793C45.9125 48.7232 46.0687 48.7232 46.381 48.7232H47.0056V48.2547H42.1646V48.8793C43.1015 49.0355 43.4139 49.0355 43.8824 50.5971L46.8495 59.967H47.6303C47.6303 59.967 50.2851 51.8465 50.4413 51.6903C50.5974 52.0026 53.4084 59.967 53.4084 59.967H54.1892C55.7509 54.5013 57.1563 50.7533 57.1563 50.5971C57.781 49.0355 57.9372 48.8793 59.0303 48.8793V48.0985Z" fill="white"/>
<path d="M62.1538 50.9096C62.1538 50.9096 63.4031 54.6575 63.5593 54.6575H60.9045C60.7483 54.6575 62.1538 50.9096 62.1538 50.9096ZM64.3401 51.2219L63.0908 47.9425L62.31 48.0986L58.7182 57.3123C58.0935 58.874 57.9374 59.0301 56.8442 59.0301V59.6548H60.9045V59.0301H60.436C60.1237 59.0301 59.8114 58.874 59.8114 58.7178V58.4055C59.8114 58.2493 59.8114 58.0931 59.9675 57.7808L60.1237 57.4685C60.2799 56.8438 60.5922 55.9068 60.7483 55.5945H64.0278C64.3401 56.5315 64.8086 57.6247 64.9648 58.0931C64.9648 58.2493 65.1209 58.4055 65.1209 58.5616V58.7178C65.1209 58.874 64.9648 58.874 64.6525 58.874L64.184 59.0301V59.4986H68.8689V58.874C67.9319 58.7178 67.6196 58.7178 66.9949 57.1562L64.3401 51.2219Z" fill="white"/>
<path d="M72.6168 49.6603C72.6168 49.1918 72.6168 48.8795 72.7729 48.8795H73.5538C74.0222 48.8795 75.7401 49.0356 75.7401 51.0658C75.7401 52.4712 74.8031 53.2521 73.2414 53.2521H72.6168V49.6603ZM69.3373 48.0986V48.7233C70.5866 48.8795 70.7428 48.8795 70.7428 50.9096V57.1562C70.7428 59.0301 70.5866 59.1863 69.1812 59.3425V59.9671H73.5538C74.9592 59.9671 76.2085 59.6548 76.9894 59.1863C78.0825 58.5616 78.551 57.6247 78.551 56.5315C78.551 54.9699 77.4579 53.8767 75.4277 53.5644C76.3647 53.4082 77.9264 52.6274 77.9264 51.0658C77.9264 50.1288 77.614 49.5041 76.9894 49.0356C76.3647 48.5671 75.5839 48.411 74.1784 48.411H69.3373V48.0986ZM73.2414 53.7206C75.2716 53.7206 76.3647 54.6575 76.3647 56.3753C76.3647 58.0932 75.1154 58.874 74.0223 58.874C73.5538 58.874 73.2414 58.874 73.0853 58.7178C72.7729 58.4055 72.7729 57.937 72.7729 57V53.8767C72.7729 53.7206 73.2414 53.7206 73.2414 53.7206Z" fill="white"/>
</svg>
