<svg width="27" height="22" viewBox="0 0 27 22" fill="none" xmlns="http://www.w3.org/2000/svg">
<g clip-path="url(#clip0_722_14885)">
<mask id="mask0_722_14885" style="mask-type:luminance" maskUnits="userSpaceOnUse" x="0" y="0" width="27" height="22">
<path d="M27 0H0V22H27V0Z" fill="white"/>
</mask>
<g mask="url(#mask0_722_14885)">
<path d="M7.71179 0.0305786C6.9033 0.0305786 6.09482 0.336134 5.50401 0.947245L1.05737 5.31669C-0.155354 6.50835 -0.155354 8.46391 1.05737 9.68613L13.6199 22L26.1514 9.65557C27.3641 8.46391 27.3641 6.50835 26.1514 5.28613L21.7047 0.947245C21.0828 0.336134 20.2743 0.0305786 19.4969 0.0305786C18.6885 0.0305786 17.88 0.336134 17.2581 0.947245L13.6199 4.5528L9.95065 0.947245C9.32875 0.336134 8.52027 0.0305786 7.71179 0.0305786Z" fill="#CC0000"/>
</g>
</g>
<defs>
<clipPath id="clip0_722_14885">
<rect width="27" height="22" fill="white"/>
</clipPath>
</defs>
</svg>
