<svg width="200" height="200" viewBox="0 0 200 200" fill="none" xmlns="http://www.w3.org/2000/svg">
  <rect width="200" height="200" rx="10" fill="white"/>
  <path d="M100 175C138.66 175 170 143.66 170 105C170 66.3401 138.66 35 100 35C61.3401 35 30 66.3401 30 105C30 143.66 61.3401 175 100 175Z" fill="#CC0000"/>
  <path d="M69 81.5C69 71.8 76.8 64 86.5 64H113.5C123.2 64 131 71.8 131 81.5V128.5C131 138.2 123.2 146 113.5 146H86.5C76.8 146 69 138.2 69 128.5V81.5Z" fill="white"/>
  <path d="M86 88.9C86 82.9 90.9 78 96.9 78H103.1C109.1 78 114 82.9 114 88.9V95.1C114 101.1 109.1 106 103.1 106H96.9C90.9 106 86 101.1 86 95.1V88.9Z" fill="#CC0000"/>
  <path d="M86 121.9C86 115.9 90.9 111 96.9 111H103.1C109.1 111 114 115.9 114 121.9V128.1C114 134.1 109.1 139 103.1 139H96.9C90.9 139 86 134.1 86 128.1V121.9Z" fill="#CC0000"/>
  <text x="60" y="190" font-family="Arial" font-size="24" font-weight="bold" fill="#CC0000">CVS</text>
</svg> 