<svg width="200" height="200" viewBox="0 0 200 200" fill="none" xmlns="http://www.w3.org/2000/svg">
  <circle cx="100" cy="100" r="95" fill="#FFFAEE" stroke="#E63946" stroke-width="5"/>
  <path d="M100 25C89.9 25 80.3 27.9 71.9 33.2C63.5 38.5 56.9 46.5 52.8 55.9C48.8 65.3 47.5 75.9 49.3 86.1C51 96.3 56 105.6 63.4 112.9C70.7 120.3 80 125.2 90.2 127C100.4 128.8 111 127.5 120.4 123.5C129.8 119.4 137.8 112.8 143.1 104.4C148.4 96 151.3 86.4 151.3 76.3C151.2 62.8 145.7 49.9 135.4 40.6C125.1 31.3 111.2 25.8 100 25Z" fill="#E63946"/>
  <path d="M50 125C45.9 125 41.8 126.1 38.4 128.2C34.9 130.3 32.2 133.4 30.6 137C29 140.7 28.5 144.8 29.3 148.7C30.1 152.7 32.1 156.3 35 159.2C37.9 162.1 41.5 164.1 45.5 164.9C49.4 165.7 53.5 165.2 57.2 163.6C60.8 162 63.9 159.3 66 155.8C68.1 152.4 69.2 148.3 69.2 144.2C69.2 138.6 66.9 133.3 62.9 129.3C58.9 125.3 53.6 125 50 125Z" fill="#43AA8B"/>
  <path d="M150 125C145.9 125 141.8 126.1 138.4 128.2C134.9 130.3 132.2 133.4 130.6 137C129 140.7 128.5 144.8 129.3 148.7C130.1 152.7 132.1 156.3 135 159.2C137.9 162.1 141.5 164.1 145.5 164.9C149.4 165.7 153.5 165.2 157.2 163.6C160.8 162 163.9 159.3 166 155.8C168.1 152.4 169.2 148.3 169.2 144.2C169.2 138.6 166.9 133.3 162.9 129.3C158.9 125.3 153.6 125 150 125Z" fill="#43AA8B"/>
  <path d="M80 65L120 90L80 115V65Z" fill="#FFFAEE"/>
  <text x="80" y="180" font-family="Arial" font-size="16" font-weight="bold" fill="#E63946">DEACON'S PIZZA</text>
</svg> 