<svg width="48" height="48" viewBox="0 0 48 48" fill="none" xmlns="http://www.w3.org/2000/svg">
<g clip-path="url(#clip0_705_14775)">
<path fill-rule="evenodd" clip-rule="evenodd" d="M25.638 48H2.64999C1.94734 47.9997 1.27357 47.7204 0.77681 47.2235C0.280055 46.7265 0.00100722 46.0527 0.00100727 45.35V2.64999C0.000875859 2.30195 0.0693254 1.9573 0.202454 1.63573C0.335582 1.31416 0.530769 1.02198 0.776871 0.775879C1.02297 0.529778 1.31516 0.334575 1.63673 0.201447C1.95831 0.0683183 2.30296 -0.000131221 2.651 1.88853e-07H45.352C45.7 1.6406e-07 46.0445 0.0685494 46.366 0.201737C46.6874 0.334924 46.9795 0.530142 47.2255 0.77623C47.4715 1.02232 47.6666 1.31446 47.7996 1.63597C47.9327 1.95748 48.0011 2.30204 48.001 2.64999V45.35C48.001 46.0527 47.7219 46.7265 47.2252 47.2235C46.7284 47.7204 46.0547 47.9997 45.352 48H33.12V29.412H39.36L40.294 22.168H33.12V17.543C33.12 15.445 33.703 14.016 36.71 14.016L40.546 14.014V7.535C39.883 7.447 37.606 7.25 34.956 7.25C29.426 7.25 25.639 10.626 25.639 16.825V22.168H19.384V29.412H25.639V48H25.638Z" fill="#4460A0"/>
</g>
<defs>
<clipPath id="clip0_705_14775">
<rect width="48" height="48" fill="white"/>
</clipPath>
</defs>
</svg>
