<svg class="styles__StyledSVG-sc-1houmlx-0 kTRzNd icon icon-lowes-filled" viewBox="0 0 16 16" aria-hidden="true" role="presentation" alt="Lowe's Home Improvement Logo" name="lowes-fill" style="--style-icon-height: 4.5rem; --style-icon-width: 4.5rem; --style-icon-color: #012169;"><path fill-rule="evenodd" d="M15.065 8.283c0 .103-.075.11-.158.11h-.118v-.205h.134c.068 0 .142.015.142.095Z"/><path fill-rule="evenodd" d="M14.908 8.909c.255 0 .456-.202.456-.478a.458.458 0 1 0-.915 0c0 .276.2.478.46.478Zm-.217-.147h.098v-.286h.114l.171.286h.11L15 8.472c.095-.012.167-.063.167-.181 0-.13-.076-.188-.229-.188h-.247v.659Z" clip-rule="evenodd"/><path fill-rule="evenodd" d="M5.355 8.613h-.643v1.442h.643V8.613Z"/><path fill-rule="evenodd" d="M3.869 6.1 8 4.333 12.133 6.1h2.577v.721H16v4.846H0V6.82h1.291V6.1H3.87Zm7.947 2.072V7.39h.614l-.106.784h-.508Zm3.092-.31a.566.566 0 0 0-.573.57c0 .33.263.572.573.572.307 0 .57-.242.57-.573a.566.566 0 0 0-.57-.57ZM2.552 7.389v2.67h1.132v.635H1.82V7.39h.731Zm7.362 3.305h1.74v-.636H10.65v-.415h1.006V9.03H10.65v-.417h1.006v-.64h-1.74v2.721Zm-3.826-.347a.348.348 0 0 1-.348.347H4.327a.348.348 0 0 1-.348-.347V8.32c0-.192.156-.347.348-.347H5.74c.192 0 .348.155.348.347v2.026Zm2.675-2.373v2.085h-.441V7.974h-.643v2.085h-.442V7.974h-.733v2.373c0 .192.156.347.348.347h.866c.146 0 .282-.1.282-.246 0 .146.136.246.282.246h.866a.348.348 0 0 0 .348-.347V7.974h-.733Zm5.46 1.692a.733.733 0 0 1 .075.339.914.914 0 0 1-.311.642c-.129.104-.328.157-.592.157-.482 0-1.027-.18-1.032-.181l-.01-.003v-.652l.019.007c.005.002.567.211.845.25h.007c.02.004.039.005.059.005.144 0 .258-.067.284-.167.025-.096-.036-.204-.153-.275a3.234 3.234 0 0 0-.325-.161c-.26-.118-.53-.24-.699-.531-.13-.258-.114-.604.04-.822.184-.266.465-.4.837-.4.044 0 .09.001.136.005.404.058.803.31.807.312l.006.004v.594l-.018-.008a44.78 44.78 0 0 0-.398-.167 1.344 1.344 0 0 0-.465-.11c-.106 0-.187.027-.24.08a.184.184 0 0 0-.06.158c.028.16.278.257.361.29l.016.006c.418.167.677.36.793.593l.005.009.008.017.005.01Z" clip-rule="evenodd"/></svg>