<?xml version="1.0" encoding="UTF-8"?>
<!DOCTYPE svg PUBLIC "-//W3C//DTD SVG 1.1//EN" "http://www.w3.org/Graphics/SVG/1.1/DTD/svg11.dtd">
<svg xmlns="http://www.w3.org/2000/svg" version="1.1" width="1280px" height="720px" style="shape-rendering:geometricPrecision; text-rendering:geometricPrecision; image-rendering:optimizeQuality; fill-rule:evenodd; clip-rule:evenodd" xmlns:xlink="http://www.w3.org/1999/xlink">
<g><path style="opacity:0.963" fill="#afd689" d="M 73.5,179.5 C 91.9706,178.827 109.637,182.327 126.5,190C 137.484,195.157 148.15,200.824 158.5,207C 177.113,219.947 195.447,233.28 213.5,247C 235.128,261.543 258.962,269.71 285,271.5C 296.762,271.268 307.929,268.601 318.5,263.5C 317.005,276.853 314.505,290.186 311,303.5C 301.837,310.212 291.504,313.546 280,313.5C 254.264,310.921 230.431,302.755 208.5,289C 187.278,275.11 166.611,260.444 146.5,245C 129.647,233.826 111.313,226.159 91.5,222C 80.8333,220 70.1667,220 59.5,222C 54.8468,223.16 50.5134,224.993 46.5,227.5C 47.4126,214.752 49.5792,202.085 53,189.5C 55.2336,187.3 57.7336,185.467 60.5,184C 65.0023,182.635 69.3357,181.135 73.5,179.5 Z"/></g>
<g><path style="opacity:0.956" fill="#afd689" d="M 289.5,184.5 C 300.757,183.212 311.424,185.045 321.5,190C 331.768,200.096 334.268,211.93 329,225.5C 321.662,237.59 310.829,243.59 296.5,243.5C 288.809,243.362 281.475,241.695 274.5,238.5C 274.167,237.5 273.833,236.5 273.5,235.5C 276.333,219.167 279.167,202.833 282,186.5C 284.607,185.877 287.107,185.21 289.5,184.5 Z"/></g>
<g><path style="opacity:0.97" fill="#0b713c" d="M 369.5,242.5 C 385.181,242.167 400.848,242.501 416.5,243.5C 430.098,279.128 443.598,314.794 457,350.5C 465.867,314.664 474.034,278.664 481.5,242.5C 496.515,242.167 511.515,242.501 526.5,243.5C 512.783,304.754 499.449,366.087 486.5,427.5C 471.588,427.824 456.755,427.491 442,426.5C 427.138,390.247 412.471,353.913 398,317.5C 389.847,354.111 382.013,390.778 374.5,427.5C 359.833,427.5 345.167,427.5 330.5,427.5C 343.628,365.861 356.628,304.194 369.5,242.5 Z"/></g>
<g><path style="opacity:0.944" fill="#0b713c" d="M 745.5,242.5 C 759.167,242.5 772.833,242.5 786.5,242.5C 784.581,255.263 782.081,267.93 779,280.5C 765.23,281.822 751.396,281.822 737.5,280.5C 740.807,267.967 743.473,255.301 745.5,242.5 Z"/></g>
<g><path style="opacity:0.961" fill="#0b713c" d="M 1216.5,242.5 C 1230.17,242.5 1243.83,242.5 1257.5,242.5C 1243.96,304.195 1230.29,365.862 1216.5,427.5C 1203.17,427.5 1189.83,427.5 1176.5,427.5C 1189.33,365.701 1202.66,304.034 1216.5,242.5 Z"/></g>
<g><path style="opacity:0.965" fill="#0b713c" d="M 672.5,252.5 C 687.17,252.333 701.837,252.5 716.5,253C 713.262,265.019 710.596,277.186 708.5,289.5C 715.508,289.334 722.508,289.5 729.5,290C 727.184,299.41 725.184,308.91 723.5,318.5C 716.5,318.5 709.5,318.5 702.5,318.5C 696.909,344.121 691.576,369.787 686.5,395.5C 693.143,396.212 699.809,396.546 706.5,396.5C 704.661,406.857 702.661,417.191 700.5,427.5C 685.496,427.667 670.496,427.5 655.5,427C 645.386,423.385 640.72,416.219 641.5,405.5C 641.627,400.462 642.127,395.462 643,390.5C 648.233,366.5 653.4,342.5 658.5,318.5C 653.456,318.827 648.456,318.494 643.5,317.5C 645.884,308.246 647.884,298.912 649.5,289.5C 655.093,289.807 660.593,289.473 666,288.5C 668.171,276.487 670.337,264.487 672.5,252.5 Z"/></g>
<g><path style="opacity:0.963" fill="#afd689" d="M 61.5,253.5 C 78.9615,253.226 95.6282,256.726 111.5,264C 122.484,269.157 133.15,274.824 143.5,281C 163.5,295.333 183.5,309.667 203.5,324C 223.839,336.779 246.005,343.946 270,345.5C 281.763,345.267 292.93,342.601 303.5,337.5C 302.005,350.853 299.505,364.186 296,377.5C 290.22,381.875 283.72,384.709 276.5,386C 255.81,387.912 236.144,384.245 217.5,375C 203.514,368.344 190.181,360.678 177.5,352C 162.678,340.756 147.678,329.756 132.5,319C 115.92,308.044 97.9196,300.378 78.5,296C 67.1609,294.028 55.8276,294.028 44.5,296C 39.8468,297.16 35.5134,298.993 31.5,301.5C 32.412,288.754 34.5787,276.088 38,263.5C 44.9415,257.913 52.7749,254.58 61.5,253.5 Z"/></g>
<g><path style="opacity:0.963" fill="#0b713c" d="M 1004.5,285.5 C 1016.95,284.188 1028.29,287.022 1038.5,294C 1046.11,303.178 1048.61,313.678 1046,325.5C 1038.97,359.281 1031.47,392.947 1023.5,426.5C 1009.85,427.499 996.183,427.833 982.5,427.5C 988.847,394.112 995.513,360.778 1002.5,327.5C 1002.74,324.486 1001.74,321.986 999.5,320C 988.602,317.134 978.435,318.634 969,324.5C 960.062,358.252 952.062,392.252 945,426.5C 931.246,427.49 917.412,427.823 903.5,427.5C 913.312,382.249 922.812,336.916 932,291.5C 944.919,289.53 958.086,288.863 971.5,289.5C 971.334,293.514 971.501,297.514 972,301.5C 980.532,291.49 991.365,286.156 1004.5,285.5 Z"/></g>
<g><path style="opacity:0.966" fill="#0b713c" d="M 842.5,286.5 C 861.282,284.073 878.949,287.24 895.5,296C 907.38,306.797 912.38,320.297 910.5,336.5C 910.126,368.17 898.46,394.67 875.5,416C 859.933,426.317 842.767,430.817 824,429.5C 782.264,433.097 763.264,414.097 767,372.5C 769.699,352.402 776.366,333.736 787,316.5C 801.188,298.49 819.688,288.49 842.5,286.5 Z M 837.5,318.5 C 843.509,318.334 849.509,318.501 855.5,319C 862.173,319.416 866.006,322.916 867,329.5C 867.57,345.236 865.236,360.569 860,375.5C 852.379,396.5 837.879,403.334 816.5,396C 810.678,390.296 808.345,383.296 809.5,375C 810.554,358.174 815.054,342.341 823,327.5C 827.042,323.07 831.875,320.07 837.5,318.5 Z"/></g>
<g><path style="opacity:0.962" fill="#0b713c" d="M 574.5,287.5 C 589.025,286.66 603.358,287.827 617.5,291C 631.698,295.048 639.031,304.548 639.5,319.5C 635.077,344.113 630.077,368.613 624.5,393C 626.232,394.695 628.232,396.028 630.5,397C 627.778,406.721 625.445,416.554 623.5,426.5C 614.844,427.313 606.177,427.48 597.5,427C 590.667,425.5 586.5,421.333 585,414.5C 572.468,424.389 558.135,429.056 542,428.5C 506.977,428.489 494.644,411.822 505,378.5C 511.4,360.769 523.9,350.269 542.5,347C 555.115,344.969 567.782,343.302 580.5,342C 585.459,341.21 590.292,340.043 595,338.5C 598.356,332.106 598.189,325.94 594.5,320C 585.155,316.668 575.821,316.668 566.5,320C 563.204,324.087 560.537,328.587 558.5,333.5C 545.816,334.5 533.149,334.166 520.5,332.5C 522.712,319.239 528.712,308.073 538.5,299C 542.221,296.473 546.221,294.473 550.5,293C 558.563,290.825 566.563,288.991 574.5,287.5 Z M 586.5,366.5 C 586.945,385.576 577.445,396.242 558,398.5C 544.596,397.025 541.262,390.358 548,378.5C 551.421,374.743 555.588,372.243 560.5,371C 569.454,370.304 578.121,368.804 586.5,366.5 Z"/></g>
<g><path style="opacity:0.963" fill="#0b713c" d="M 1114.5,287.5 C 1128.28,286.885 1141.94,287.718 1155.5,290C 1174.97,294.503 1182.81,306.67 1179,326.5C 1174.54,349.118 1169.71,371.618 1164.5,394C 1166.35,395.128 1168.35,395.628 1170.5,395.5C 1169.38,405.29 1167.54,414.957 1165,424.5C 1163.65,425.704 1161.98,426.371 1160,426.5C 1151,428.26 1142.17,427.76 1133.5,425C 1129.98,422.129 1127.32,418.629 1125.5,414.5C 1113.03,424.541 1098.7,429.207 1082.5,428.5C 1048.98,428.125 1036.81,411.792 1046,379.5C 1050.79,364.376 1060.63,354.209 1075.5,349C 1095.48,345.536 1115.48,342.202 1135.5,339C 1138.3,333.579 1138.97,327.913 1137.5,322C 1136.56,320.523 1135.22,319.523 1133.5,319C 1126.92,317.456 1120.25,317.123 1113.5,318C 1110.3,318.848 1107.47,320.348 1105,322.5C 1103.02,326.288 1101.19,330.121 1099.5,334C 1087.17,334.132 1074.84,333.965 1062.5,333.5C 1064.24,315.623 1072.91,302.457 1088.5,294C 1097.14,291.174 1105.81,289.007 1114.5,287.5 Z M 1127.5,366.5 C 1128.89,386.156 1119.22,396.823 1098.5,398.5C 1088.95,399.121 1084.78,394.788 1086,385.5C 1087.78,377.172 1092.94,372.339 1101.5,371C 1110.45,370.304 1119.12,368.804 1127.5,366.5 Z"/></g>
<g><path style="opacity:0.961" fill="#0b713c" d="M 735.5,289.5 C 749.167,289.5 762.833,289.5 776.5,289.5C 767.296,335.522 757.962,381.522 748.5,427.5C 734.167,427.5 719.833,427.5 705.5,427.5C 715.117,381.415 725.117,335.415 735.5,289.5 Z"/></g>
<g><path style="opacity:0.964" fill="#afd689" d="M 46.5,327.5 C 67.3473,327.504 87.014,332.338 105.5,342C 118.499,349.164 131.166,356.831 143.5,365C 158.27,377.105 173.604,388.438 189.5,399C 209.426,411.364 231.093,418.198 254.5,419.5C 266.507,419.665 277.841,416.998 288.5,411.5C 287.005,424.855 284.505,438.189 281,451.5C 269.19,459.946 256.023,463.113 241.5,461C 220.052,457.609 200.052,450.276 181.5,439C 175.335,434.75 169.002,430.75 162.5,427C 146.855,414.844 130.855,403.178 114.5,392C 93.2871,378.306 70.1204,370.473 45,368.5C 34.8111,368.256 25.3111,370.589 16.5,375.5C 17.4109,362.759 19.5775,350.092 23,337.5C 29.9415,331.913 37.7749,328.58 46.5,327.5 Z"/></g>
<g><path style="opacity:0.756" fill="#0b713c" d="M 1257.5,392.5 C 1271.6,393.771 1277.77,401.438 1276,415.5C 1270.35,428.741 1261.18,431.907 1248.5,425C 1238.88,415.017 1239.22,405.351 1249.5,396C 1252.16,394.522 1254.82,393.355 1257.5,392.5 Z M 1268.5,403.5 C 1267.71,403.217 1267.04,402.717 1266.5,402C 1261.83,401.667 1257.17,401.333 1252.5,401C 1257.43,397.735 1262.43,397.735 1267.5,401C 1268.25,401.671 1268.59,402.504 1268.5,403.5 Z M 1250.5,402.5 C 1251.65,407.985 1251.82,413.651 1251,419.5C 1247.91,413.919 1247.74,408.252 1250.5,402.5 Z M 1257.5,404.5 C 1259.21,405.088 1260.87,405.421 1262.5,405.5C 1263.43,406.689 1263.76,408.022 1263.5,409.5C 1261.14,409.663 1258.81,409.497 1256.5,409C 1257.38,407.644 1257.71,406.144 1257.5,404.5 Z M 1269.5,404.5 C 1272.35,409.287 1272.02,413.954 1268.5,418.5C 1264.43,415.503 1264.6,412.836 1269,410.5C 1269.5,408.527 1269.66,406.527 1269.5,404.5 Z M 1257.5,413.5 C 1258.5,413.414 1259.33,413.748 1260,414.5C 1260.86,418.027 1263.03,420.193 1266.5,421C 1261.88,424.311 1257.22,424.311 1252.5,421C 1254.13,420.506 1255.8,420.34 1257.5,420.5C 1257.5,418.167 1257.5,415.833 1257.5,413.5 Z"/></g>
<g><path style="opacity:0.954" fill="#afd689" d="M 34.5,400.5 C 43.0654,401.059 51.3987,402.725 59.5,405.5C 57.0399,423.26 54.0399,440.927 50.5,458.5C 42.2207,460.047 33.8873,460.547 25.5,460C 7.15411,455.84 -0.679221,444.34 2,425.5C 5.37046,414.461 12.5371,406.961 23.5,403C 27.3121,402.205 30.9788,401.371 34.5,400.5 Z"/></g>
<g><path style="opacity:0.914" fill="#0b713c" d="M 1188.5,460.5 C 1195.17,460.5 1201.83,460.5 1208.5,460.5C 1202.5,486.833 1196.5,513.167 1190.5,539.5C 1184.17,539.5 1177.83,539.5 1171.5,539.5C 1177.04,513.139 1182.71,486.805 1188.5,460.5 Z"/></g>
<g><path style="opacity:0.921" fill="#0b713c" d="M 673.5,462.5 C 685.711,461.189 697.378,463.022 708.5,468C 708.957,468.414 709.291,468.914 709.5,469.5C 707.534,475.364 706.201,481.364 705.5,487.5C 704.127,487.657 702.793,487.49 701.5,487C 686.692,473.498 673.192,474.664 661,490.5C 656.164,500.453 655.831,510.453 660,520.5C 661.579,522.041 663.413,523.208 665.5,524C 676.471,526.009 686.138,523.342 694.5,516C 695.793,515.51 697.127,515.343 698.5,515.5C 697.325,521.866 695.992,528.2 694.5,534.5C 688.691,536.824 682.691,538.658 676.5,540C 664.445,542.233 653.445,539.9 643.5,533C 636.075,524.131 633.575,513.964 636,502.5C 639.817,480.854 652.317,467.521 673.5,462.5 Z"/></g>
<g><path style="opacity:0.926" fill="#0b713c" d="M 871.5,463.5 C 883.838,463.333 896.171,463.5 908.5,464C 926.945,466.073 933.445,475.906 928,493.5C 923.674,500.16 917.841,504.993 910.5,508C 916.519,518.206 921.853,528.706 926.5,539.5C 919.159,539.666 911.826,539.5 904.5,539C 899.872,530.245 895.372,521.411 891,512.5C 887.606,511.544 884.106,511.211 880.5,511.5C 878.975,520.601 876.975,529.601 874.5,538.5C 867.866,539.497 861.2,539.83 854.5,539.5C 859.851,514.097 865.517,488.764 871.5,463.5 Z M 888.5,478.5 C 893.93,478.161 899.264,478.661 904.5,480C 909.531,485.063 909.197,490.063 903.5,495C 897.344,497.097 891.01,497.93 884.5,497.5C 885.675,491.132 887.009,484.799 888.5,478.5 Z"/></g>
<g><path style="opacity:0.9" fill="#0b713c" d="M 1080.5,465.5 C 1086.83,465.5 1093.17,465.5 1099.5,465.5C 1098.5,470.833 1097.5,476.167 1096.5,481.5C 1101.83,481.5 1107.17,481.5 1112.5,481.5C 1112.07,486.149 1111.07,490.649 1109.5,495C 1103.84,495.499 1098.18,495.666 1092.5,495.5C 1091.32,502.554 1089.82,509.554 1088,516.5C 1087.33,519.5 1087.33,522.5 1088,525.5C 1092.78,526.611 1097.61,526.611 1102.5,525.5C 1101.86,529.527 1101.03,533.527 1100,537.5C 1090,541.727 1080.17,541.394 1070.5,536.5C 1068.01,534.046 1066.68,531.046 1066.5,527.5C 1068.45,517.071 1070.79,506.738 1073.5,496.5C 1071.26,495.526 1068.92,495.192 1066.5,495.5C 1067.03,491.064 1068.03,486.731 1069.5,482.5C 1072.03,481.786 1074.53,481.12 1077,480.5C 1078.01,475.446 1079.18,470.446 1080.5,465.5 Z"/></g>
<g><path style="opacity:0.911" fill="#0b713c" d="M 728.5,480.5 C 736.174,480.334 743.841,480.5 751.5,481C 760.299,481.967 765.299,486.8 766.5,495.5C 763.637,509.951 760.304,524.284 756.5,538.5C 750.202,539.496 743.868,539.83 737.5,539.5C 737.815,537.774 737.981,536.107 738,534.5C 728.272,541.351 718.105,542.184 707.5,537C 701.087,529.052 700.921,520.885 707,512.5C 713.17,507.216 720.337,504.049 728.5,503C 734.465,502.037 740.465,501.537 746.5,501.5C 746.785,496.617 744.451,494.117 739.5,494C 736.167,493.333 732.833,493.333 729.5,494C 724.516,495.33 719.516,496.496 714.5,497.5C 714.624,492.711 715.458,488.045 717,483.5C 720.877,482.267 724.711,481.267 728.5,480.5 Z M 741.5,512.5 C 742.376,512.369 743.043,512.702 743.5,513.5C 742.687,517.074 741.687,520.574 740.5,524C 735.04,527.76 729.374,528.26 723.5,525.5C 722.009,521.627 723.009,518.461 726.5,516C 731.545,514.425 736.545,513.259 741.5,512.5 Z"/></g>
<g><path style="opacity:0.915" fill="#0b713c" d="M 958.5,480.5 C 964.842,480.334 971.175,480.5 977.5,481C 991.752,486.004 996.585,495.838 992,510.5C 991.691,511.766 991.191,512.933 990.5,514C 976.837,514.5 963.171,514.667 949.5,514.5C 949.293,520.798 952.293,524.631 958.5,526C 967.781,527.513 976.448,525.846 984.5,521C 985.944,520.219 987.277,520.386 988.5,521.5C 987.167,526.167 985.833,530.833 984.5,535.5C 969.892,541.923 955.225,542.09 940.5,536C 933.562,530.957 930.229,524.124 930.5,515.5C 931.544,497.029 940.877,485.362 958.5,480.5 Z M 961.5,492.5 C 969.867,490.914 974.201,494.248 974.5,502.5C 966.826,502.666 959.159,502.5 951.5,502C 953.442,497.225 956.775,494.058 961.5,492.5 Z"/></g>
<g><path style="opacity:0.911" fill="#0b713c" d="M 1037.5,480.5 C 1054.68,478.176 1061.84,485.51 1059,502.5C 1056.48,514.583 1053.65,526.583 1050.5,538.5C 1044.2,539.496 1037.87,539.83 1031.5,539.5C 1033.85,526.771 1036.52,514.104 1039.5,501.5C 1038.84,497.316 1036.34,495.316 1032,495.5C 1028,496.047 1024.5,497.547 1021.5,500C 1018.46,512.882 1015.29,525.716 1012,538.5C 1005.92,539.476 999.758,539.81 993.5,539.5C 997.188,520.414 1001.35,501.414 1006,482.5C 1012.41,481.522 1018.91,481.189 1025.5,481.5C 1024.95,483.331 1024.95,484.997 1025.5,486.5C 1029.32,483.921 1033.32,481.921 1037.5,480.5 Z"/></g>
<g><path style="opacity:0.912" fill="#0b713c" d="M 1135.5,480.5 C 1143.17,480.334 1150.84,480.5 1158.5,481C 1167.3,481.967 1172.3,486.8 1173.5,495.5C 1170.49,509.867 1167.32,524.201 1164,538.5C 1157.59,539.478 1151.09,539.811 1144.5,539.5C 1144.81,537.774 1144.98,536.107 1145,534.5C 1135.31,541.348 1125.14,542.181 1114.5,537C 1108.09,529.052 1107.92,520.885 1114,512.5C 1120.17,507.216 1127.34,504.049 1135.5,503C 1141.47,502.037 1147.47,501.537 1153.5,501.5C 1154.09,496.434 1151.76,493.934 1146.5,494C 1143.17,493.333 1139.83,493.333 1136.5,494C 1131.52,495.33 1126.52,496.496 1121.5,497.5C 1121.62,492.711 1122.46,488.045 1124,483.5C 1127.92,482.439 1131.75,481.439 1135.5,480.5 Z M 1148.5,512.5 C 1149.5,512.47 1150.16,512.97 1150.5,514C 1149.65,517.408 1148.65,520.741 1147.5,524C 1142.04,527.76 1136.37,528.26 1130.5,525.5C 1129.01,521.627 1130.01,518.461 1133.5,516C 1138.55,514.425 1143.55,513.259 1148.5,512.5 Z"/></g>
<g><path style="opacity:0.899" fill="#0b713c" d="M 778.5,481.5 C 784.833,481.5 791.167,481.5 797.5,481.5C 797.373,483.915 797.207,486.249 797,488.5C 803.981,483.296 811.815,480.963 820.5,481.5C 819.167,487.833 817.833,494.167 816.5,500.5C 809.064,498.893 801.73,499.226 794.5,501.5C 790.567,513.563 787.401,525.896 785,538.5C 778.59,539.478 772.09,539.811 765.5,539.5C 769.833,520.168 774.166,500.835 778.5,481.5 Z"/></g>
</svg>
