<svg width="36" height="36" viewBox="0 0 36 36" fill="none" xmlns="http://www.w3.org/2000/svg">
<path fill-rule="evenodd" clip-rule="evenodd" d="M19.7928 0.25L19.0528 9.37C18.7028 9.33 18.3528 9.31 17.9928 9.31C17.5428 9.31 17.1028 9.34 16.6728 9.41L16.2528 4.99C16.2428 4.85 16.3528 4.73 16.4928 4.73H17.2428L16.8828 0.26C16.8728 0.12 16.9828 0 17.1128 0H19.5628C19.7028 0 19.8128 0.12 19.7928 0.26V0.25ZM13.6128 0.7C13.5728 0.57 13.4328 0.49 13.3028 0.54L11.0028 1.38C10.8728 1.43 10.8128 1.58 10.8728 1.7L12.7428 5.78L12.0328 6.04C11.9028 6.09 11.8428 6.24 11.9028 6.36L13.8128 10.37C14.5028 9.99 15.2528 9.7 16.0428 9.52L13.6228 0.7H13.6128ZM7.97277 3.24L13.2628 10.7C12.5928 11.14 11.9828 11.66 11.4628 12.26L8.29277 9.14C8.19277 9.04 8.20277 8.88 8.30277 8.79L8.88277 8.31L5.73277 5.12C5.63277 5.02 5.64277 4.86 5.75277 4.77L7.62277 3.2C7.73277 3.11 7.88277 3.13 7.96277 3.24H7.97277ZM3.53277 7.56C3.42277 7.48 3.26277 7.52 3.19277 7.64L1.97277 9.76C1.90277 9.88 1.95277 10.03 2.07277 10.09L6.13277 12.01L5.75277 12.66C5.68277 12.78 5.73277 12.94 5.86277 12.99L9.90277 14.84C10.1928 14.09 10.5828 13.39 11.0628 12.76L3.53277 7.56ZM0.542774 13.32C0.562774 13.18 0.702774 13.1 0.832774 13.13L9.68277 15.44C9.45277 16.19 9.32277 16.98 9.30277 17.8L4.87277 17.44C4.73277 17.43 4.63277 17.3 4.66277 17.16L4.79277 16.42L0.322774 16C0.182774 15.99 0.0927741 15.86 0.112774 15.72L0.532774 13.31L0.542774 13.32ZM0.212774 19.3C0.0727741 19.31 -0.0172259 19.44 0.00277412 19.58L0.432774 21.99C0.452774 22.13 0.592774 22.21 0.722774 22.18L5.06277 21.05L5.19277 21.79C5.21277 21.93 5.35277 22.01 5.48277 21.98L9.76277 20.8C9.51277 20.06 9.35277 19.27 9.31277 18.46L0.202774 19.3H0.212774ZM1.63277 25.64C1.56277 25.52 1.61277 25.37 1.73277 25.31L9.99277 21.39C10.3028 22.13 10.7228 22.82 11.2228 23.44L7.60277 26.02C7.49277 26.1 7.33277 26.07 7.26277 25.95L6.88277 25.29L3.19277 27.84C3.08277 27.92 2.92277 27.88 2.85277 27.76L1.62277 25.64H1.63277ZM11.6428 23.92L5.21277 30.43C5.11277 30.53 5.12277 30.69 5.23277 30.78L7.11277 32.35C7.22277 32.44 7.37277 32.42 7.45277 32.31L10.0528 28.65L10.6328 29.14C10.7428 29.23 10.9028 29.21 10.9828 29.09L13.5028 25.43C12.8228 25.01 12.1928 24.5 11.6528 23.92H11.6428ZM10.3728 34.37C10.2428 34.32 10.1828 34.17 10.2428 34.05L14.0528 25.73C14.7528 26.09 15.5128 26.36 16.3028 26.51L15.1828 30.81C15.1528 30.94 15.0028 31.02 14.8728 30.97L14.1628 30.71L12.9728 35.04C12.9328 35.17 12.7928 35.25 12.6628 35.2L10.3628 34.36L10.3728 34.37ZM16.9328 26.62L16.1928 35.74C16.1828 35.88 16.2928 36 16.4228 36H18.8728C19.0128 36 19.1228 35.88 19.1028 35.74L18.7428 31.27H19.4928C19.6328 31.27 19.7428 31.15 19.7328 31.01L19.3128 26.59C18.8828 26.66 18.4428 26.69 17.9928 26.69C17.6328 26.69 17.2828 26.67 16.9328 26.62ZM25.7528 1.93C25.8128 1.8 25.7528 1.66 25.6228 1.61L23.3228 0.77C23.1928 0.72 23.0528 0.8 23.0128 0.93L21.8228 5.26L21.1128 5C20.9828 4.95 20.8428 5.03 20.8028 5.16L19.6828 9.46C20.4828 9.62 21.2328 9.89 21.9328 10.24L25.7528 1.93ZM30.7728 5.56L24.3428 12.07C23.8028 11.49 23.1828 10.98 22.4928 10.56L25.0128 6.9C25.0928 6.79 25.2528 6.76 25.3628 6.85L25.9428 7.34L28.5428 3.68C28.6228 3.57 28.7828 3.55 28.8828 3.64L30.7628 5.21C30.8728 5.3 30.8728 5.46 30.7828 5.56H30.7728ZM34.2528 10.68C34.3828 10.62 34.4228 10.47 34.3528 10.35L33.1228 8.23C33.0528 8.11 32.8928 8.08 32.7828 8.15L29.0928 10.7L28.7128 10.05C28.6428 9.93 28.4828 9.89 28.3728 9.98L24.7528 12.56C25.2528 13.18 25.6628 13.87 25.9828 14.61L34.2428 10.69L34.2528 10.68ZM35.5528 14L35.9728 16.41C35.9928 16.55 35.9028 16.67 35.7628 16.69L26.6528 17.54C26.6128 16.72 26.4528 15.94 26.2028 15.2L30.4828 14.02C30.6128 13.98 30.7528 14.07 30.7728 14.21L30.9028 14.95L35.2428 13.82C35.3728 13.79 35.5128 13.87 35.5328 14.01L35.5528 14ZM35.1428 22.85C35.2728 22.88 35.4128 22.8 35.4328 22.66L35.8528 20.25C35.8728 20.11 35.7828 19.99 35.6428 19.97L31.1728 19.55L31.3028 18.81C31.3228 18.67 31.2328 18.55 31.0928 18.53L26.6628 18.17C26.6428 18.99 26.5128 19.78 26.2828 20.53L35.1328 22.84L35.1428 22.85ZM32.7828 28.35C32.7128 28.47 32.5528 28.5 32.4428 28.43L24.9128 23.23C25.3928 22.6 25.7828 21.9 26.0728 21.15L30.1128 23C30.2428 23.06 30.2928 23.21 30.2228 23.33L29.8428 23.98L33.9028 25.9C34.0228 25.96 34.0728 26.11 34.0028 26.23L32.7828 28.35ZM22.7128 25.28L28.0028 32.74C28.0828 32.85 28.2428 32.87 28.3428 32.78L30.2128 31.21C30.3228 31.12 30.3228 30.96 30.2328 30.86L27.0828 27.67L27.6628 27.19C27.7728 27.1 27.7728 26.94 27.6728 26.84L24.5028 23.72C23.9728 24.32 23.3728 24.85 22.7028 25.28H22.7128ZM22.6628 35.44C22.5328 35.49 22.3928 35.41 22.3528 35.28L19.9328 26.46C20.7228 26.28 21.4728 25.99 22.1628 25.61L24.0728 29.62C24.1328 29.75 24.0728 29.9 23.9428 29.94L23.2328 30.2L25.1028 34.28C25.1628 34.41 25.1028 34.55 24.9728 34.6L22.6728 35.44H22.6628Z" fill="#191919"/>
</svg>
